<svg xmlns="http://www.w3.org/2000/svg" width="1100" height="700" viewBox="0 0 1100 700"><defs><marker id="arrow" markerWidth="10" markerHeight="8" refX="9" refY="4" orient="auto"><path d="M0,0 L10,4 L0,8" fill="none" stroke="#475569"/></marker></defs><rect width="100%" height="100%" fill="white"/><text x="550.0" y="38" text-anchor="middle" fill="#172b4d" font-size="26" font-weight="600" font-family="Microsoft YaHei, Noto Sans CJK SC, sans-serif">系统主用例图</text><rect x="255" y="80" width="605" height="570" fill="none" stroke="#94a3b8" stroke-dasharray="6 4"/><text x="555" y="111" text-anchor="middle" fill="#172b4d" font-size="18" font-weight="400" font-family="Microsoft YaHei, Noto Sans CJK SC, sans-serif">企业内部知识库系统</text><ellipse cx="410.0" cy="178.0" rx="120.0" ry="33.0" fill="#f0f6fb" stroke="#7491ad" stroke-width="1.5"/><text x="410.0" y="185.0" text-anchor="middle" fill="#172b4d" font-size="20" font-weight="400" font-family="Microsoft YaHei, Noto Sans CJK SC, sans-serif">登录系统</text><ellipse cx="410.0" cy="298.0" rx="120.0" ry="33.0" fill="#f0f6fb" stroke="#7491ad" stroke-width="1.5"/><text x="410.0" y="305.0" text-anchor="middle" fill="#172b4d" font-size="20" font-weight="400" font-family="Microsoft YaHei, Noto Sans CJK SC, sans-serif">智能问答</text><ellipse cx="410.0" cy="418.0" rx="120.0" ry="33.0" fill="#f0f6fb" stroke="#7491ad" stroke-width="1.5"/><text x="410.0" y="425.0" text-anchor="middle" fill="#172b4d" font-size="20" font-weight="400" font-family="Microsoft YaHei, Noto Sans CJK SC, sans-serif">查看来源与历史</text><ellipse cx="410.0" cy="538.0" rx="120.0" ry="33.0" fill="#f0f6fb" stroke="#7491ad" stroke-width="1.5"/><text x="410.0" y="545.0" text-anchor="middle" fill="#172b4d" font-size="20" font-weight="400" font-family="Microsoft YaHei, Noto Sans CJK SC, sans-serif">评价回答</text><ellipse cx="690.0" cy="178.0" rx="120.0" ry="33.0" fill="#f0f6fb" stroke="#7491ad" stroke-width="1.5"/><text x="690.0" y="185.0" text-anchor="middle" fill="#172b4d" font-size="20" font-weight="400" font-family="Microsoft YaHei, Noto Sans CJK SC, sans-serif">维护知识库</text><ellipse cx="690.0" cy="298.0" rx="120.0" ry="33.0" fill="#f0f6fb" stroke="#7491ad" stroke-width="1.5"/><text x="690.0" y="305.0" text-anchor="middle" fill="#172b4d" font-size="20" font-weight="400" font-family="Microsoft YaHei, Noto Sans CJK SC, sans-serif">上传与处理文档</text><ellipse cx="690.0" cy="418.0" rx="120.0" ry="33.0" fill="#f0f6fb" stroke="#7491ad" stroke-width="1.5"/><text x="690.0" y="425.0" text-anchor="middle" fill="#172b4d" font-size="20" font-weight="400" font-family="Microsoft YaHei, Noto Sans CJK SC, sans-serif">管理用户权限</text><ellipse cx="690.0" cy="538.0" rx="120.0" ry="33.0" fill="#f0f6fb" stroke="#7491ad" stroke-width="1.5"/><text x="690.0" y="545.0" text-anchor="middle" fill="#172b4d" font-size="20" font-weight="400" font-family="Microsoft YaHei, Noto Sans CJK SC, sans-serif">查看问答统计</text><g stroke="#334155" stroke-width="2" fill="none"><circle cx="110" cy="290" r="15"/><path d="M110,305 v45 m-30,-26 h60 m-30,26 l-25,35 m25,-35 l25,35"/></g><text x="110" y="410" text-anchor="middle" fill="#172b4d" font-size="19" font-weight="400" font-family="Microsoft YaHei, Noto Sans CJK SC, sans-serif">员工</text><g stroke="#334155" stroke-width="2" fill="none"><circle cx="990" cy="210" r="15"/><path d="M990,225 v45 m-30,-26 h60 m-30,26 l-25,35 m25,-35 l25,35"/></g><text x="990" y="330" text-anchor="middle" fill="#172b4d" font-size="19" font-weight="400" font-family="Microsoft YaHei, Noto Sans CJK SC, sans-serif">部门管理员</text><g stroke="#334155" stroke-width="2" fill="none"><circle cx="990" cy="470" r="15"/><path d="M990,485 v45 m-30,-26 h60 m-30,26 l-25,35 m25,-35 l25,35"/></g><text x="990" y="590" text-anchor="middle" fill="#172b4d" font-size="19" font-weight="400" font-family="Microsoft YaHei, Noto Sans CJK SC, sans-serif">系统管理员</text><polyline points="145,330 290,178" fill="none" stroke="#475569" stroke-width="1.6" marker-end="url(#arrow)" /><polyline points="145,330 290,298" fill="none" stroke="#475569" stroke-width="1.6" marker-end="url(#arrow)" /><polyline points="145,330 290,418" fill="none" stroke="#475569" stroke-width="1.6" marker-end="url(#arrow)" /><polyline points="145,330 290,538" fill="none" stroke="#475569" stroke-width="1.6" marker-end="url(#arrow)" /><polyline points="958,250 810,178" fill="none" stroke="#475569" stroke-width="1.6" marker-end="url(#arrow)" /><polyline points="958,250 810,298" fill="none" stroke="#475569" stroke-width="1.6" marker-end="url(#arrow)" /><polyline points="958,510 810,418" fill="none" stroke="#475569" stroke-width="1.6" marker-end="url(#arrow)" /><polyline points="958,510 810,538" fill="none" stroke="#475569" stroke-width="1.6" marker-end="url(#arrow)" /><text x="990" y="642" text-anchor="middle" fill="#172b4d" font-size="15" font-weight="400" font-family="Microsoft YaHei, Noto Sans CJK SC, sans-serif">继承员工能力</text></svg>